<svg xmlns="http://www.w3.org/2000/svg" width="70.886" height="67.768" viewBox="0 0 70.886 67.768">
  <path id="Path_2" data-name="Path 2" d="M42.976,39.18a6.206,6.206,0,1,1,5.476,9.128,2.148,2.148,0,0,0,0,4.3,10.5,10.5,0,1,0-9.266-15.45,2.149,2.149,0,0,0,3.79,2.025Zm-30.828,13.5h36.3a2.148,2.148,0,1,0,0-4.3h-36.3a2.148,2.148,0,0,0,0,4.3Zm53.49.5a6.206,6.206,0,1,1,4.745,10.206,2.148,2.148,0,1,0,0,4.3,10.5,10.5,0,1,0-8.036-17.266,2.149,2.149,0,1,0,3.291,2.763ZM12.524,67.68H70.376a2.148,2.148,0,0,0,.007-4.3H12.524a2.148,2.148,0,0,0,0,4.3ZM58.5,82.66a6.206,6.206,0,1,1-5.476,9.128,2.149,2.149,0,1,0-3.79,2.025A10.5,10.5,0,1,0,58.5,78.363a2.148,2.148,0,1,0,0,4.3Zm0-4.3H12.712a2.148,2.148,0,0,0,0,4.3H58.5a2.148,2.148,0,0,0,0-4.3Z" transform="translate(-10 -31.6)" fill="#fff"/>
</svg>
